<svg xmlns="http://www.w3.org/2000/svg" viewBox="0 0 787.86 313.73"><defs><style>.cls-1{fill:#35445b;}.cls-2{fill:#fff;}.cls-3{fill:#36445b;}.cls-4{fill:#354159;}.cls-5{fill:none;}</style></defs><g id="Layer_2" data-name="Layer 2"><g id="Layer_1-2" data-name="Layer 1"><rect class="cls-1" x="281.81" y="225.43" width="506.04" height="59.48"/><path class="cls-2" d="M307,236.67h21.69v4H312.24V253h15.23v4H312.24v16.73H307Z"/><path class="cls-2" d="M367.86,262l-4.18,11.63H358.3l13.68-37h6.27l13.74,37h-5.55L382.14,262Zm13.2-3.73-3.94-10.64c-.9-2.42-1.5-4.61-2.09-6.75h-.12c-.6,2.19-1.26,4.44-2,6.69l-3.95,10.7Z"/><path class="cls-2" d="M427.06,267.84a19.71,19.71,0,0,0,9.32,2.41c5.32,0,8.42-2.58,8.42-6.31,0-3.45-2.15-5.43-7.58-7.35-6.58-2.14-10.64-5.27-10.64-10.48,0-5.76,5.2-10,13-10a19.69,19.69,0,0,1,8.9,1.81l-1.44,3.9a17.08,17.08,0,0,0-7.64-1.76c-5.5,0-7.59,3-7.59,5.54,0,3.46,2.45,5.16,8,7.14,6.81,2.41,10.28,5.43,10.28,10.86,0,5.7-4.6,10.64-14.1,10.64-3.88,0-8.12-1-10.27-2.36Z"/><path class="cls-2" d="M492.3,236.67v15.48h19.47V236.67H517v37h-5.26V256.32H492.3v17.33h-5.2v-37Z"/><path class="cls-2" d="M561.12,236.67v37h-5.2v-37Z"/><path class="cls-2" d="M634.48,254.78c0,12.73-8.43,19.48-18.7,19.48-10.63,0-18.1-7.57-18.1-18.77,0-11.74,7.94-19.42,18.7-19.42C627.37,236.07,634.48,243.81,634.48,254.78Zm-31.24.6c0,7.9,4.66,15,12.84,15s12.9-7,12.9-15.36c0-7.35-4.18-15-12.84-15S603.24,247.26,603.24,255.38Z"/><path class="cls-2" d="M671.1,273.65v-37h5.68l12.9,18.71a102,102,0,0,1,7.23,12l.12-.06a150.2,150.2,0,0,1-.6-15.19V236.67h4.9v37h-5.26l-12.78-18.76a114.61,114.61,0,0,1-7.53-12.35l-.18.06c.3,4.66.42,9.11.42,15.25v15.8Z"/><path class="cls-2" d="M739.56,267.84a19.74,19.74,0,0,0,9.32,2.41c5.32,0,8.42-2.58,8.42-6.31,0-3.45-2.15-5.43-7.58-7.35-6.57-2.14-10.63-5.27-10.63-10.48,0-5.76,5.19-10,13-10a19.66,19.66,0,0,1,8.9,1.81l-1.43,3.9a17.17,17.17,0,0,0-7.65-1.76c-5.5,0-7.59,3-7.59,5.54,0,3.46,2.45,5.16,8,7.14,6.81,2.41,10.27,5.43,10.27,10.86,0,5.7-4.6,10.64-14.1,10.64-3.88,0-8.12-1-10.27-2.36Z"/><path class="cls-3" d="M28.78,121.9a31.07,31.07,0,0,0,6.7-1.12,62,62,0,0,0,7.08-2,5.08,5.08,0,0,1,.75-.13,4.18,4.18,0,0,1-1.12,1,18.3,18.3,0,0,0-2.35,2.14,4.79,4.79,0,0,0-1.23,2.29,2.37,2.37,0,0,0,2.06,3,8.34,8.34,0,0,0,4.19-.63,30,30,0,0,0,8.36-4.75A109.61,109.61,0,0,0,63,113.33c.5-.48,1-1,1.54-1.4a5.35,5.35,0,0,1,2.65-1.25,10.41,10.41,0,0,0,1.81-.45,2.79,2.79,0,0,0,2.1-3c0-.62.23-.8.72-1A23.66,23.66,0,0,0,76.5,104a17.26,17.26,0,0,0,6.14-6.58c.32-.62.67-1.22,1-1.83a1.14,1.14,0,0,0,.09-1.06.7.7,0,0,0-.6-.42c-.25,0-.37.22-.43.44-.16.6-.35,1.19-.46,1.8a6.1,6.1,0,0,1-1.07,2.51,18,18,0,0,1-8.09,6.35c-.5.22-1,.37-1.53.6s-.69.17-.88-.28a1.38,1.38,0,0,0-.29-.46c-.38-.4-.21-.67.13-1a18.8,18.8,0,0,0,3.32-4.21,19.35,19.35,0,0,0,1.88-4.68c.37-1.45.72-2.91,1.07-4.37a3.15,3.15,0,0,0,.11-1.3.66.66,0,0,0-.71-.56c-.33,0-.38.3-.4.56s0,.73,0,1.1a18,18,0,0,1-5.46,13c-.4.41-.71.53-1.17.09a5.06,5.06,0,0,0-1.71-.92,2.39,2.39,0,0,1,.38-1.17,217.21,217.21,0,0,0,9-24.5,118.86,118.86,0,0,0,4.57-22.89,87.54,87.54,0,0,0,.06-15.78A60.44,60.44,0,0,0,80,28.92c0-.14-.06-.29-.1-.43a1.68,1.68,0,0,0-2.61-1.16,41.12,41.12,0,0,0-6.23,3.9A23.21,23.21,0,0,0,66,36.65c-1.24,1.81-2.43,3.66-3.65,5.48A35.83,35.83,0,0,1,59,46.6,15.2,15.2,0,0,1,52,51c-1.33.39-2.65.83-4,1.31a8.5,8.5,0,0,0-3.86,2.81,18,18,0,0,1-1.69,2,3.64,3.64,0,0,1-3.08,1.14c-.69-.09-1.38-.12-2.07-.21a4.65,4.65,0,0,0-4.07,1.46A15.66,15.66,0,0,0,31.33,62a21,21,0,0,1-2.28,3c-1.15,1.23-.94,2.5.55,3.34C32.8,70.08,35.94,72,39,74a83.05,83.05,0,0,1,12.48,9.69,49.58,49.58,0,0,1,9.68,13.63,4,4,0,0,1,.16.49,1,1,0,0,1-.58-.47,63.61,63.61,0,0,0-7.34-7.25A152.59,152.59,0,0,0,38,78.09,99.7,99.7,0,0,0,15.22,66.5a15.94,15.94,0,0,0-2.74-.79c-2-.32-3.13.36-3.58,2.31a24.89,24.89,0,0,0-.61,7.74A9.07,9.07,0,0,0,10,80.21c.73,1.05,1.5,2.08,2.24,3.12a4.56,4.56,0,0,1,.89,2.11A3.71,3.71,0,0,1,12,88.62a13.32,13.32,0,0,1-2.38,1.93,6.41,6.41,0,0,0-3,5.22c-.06.87-.18,1.74-.26,2.62a6.14,6.14,0,0,1-2.23,4.37c-.67.57-1.35,1.14-2,1.72A11.54,11.54,0,0,0,1,105.65a4,4,0,0,0-.52,4.53,14.21,14.21,0,0,0,3.85,4.59,24.51,24.51,0,0,0,10.55,5.41A56.74,56.74,0,0,0,28.78,121.9Z"/><path class="cls-4" d="M147,249.38a82.74,82.74,0,0,1-27.78-3.8c-6.84-2-13.76-3.48-21-3A37.08,37.08,0,0,0,71.5,256.47c-2.74,3.28-4.93,6.94-7.34,10.45a.55.55,0,0,0,.07.82c.77-.09,1-.88,1.4-1.42,6.31-8.49,14.38-14.42,24.76-16.86,8.74-2.06,17.32-.94,25.78,1.64,9.62,2.94,19.4,4.81,29.52,4.43a28.87,28.87,0,0,0,9.3-1.9c4.36-1.68,6.37-5.23,7.14-9.6a35.87,35.87,0,0,0,.09-10.7c-.3-2.3.08-4.1,2.44-5.18a9.57,9.57,0,0,0,3.05-2.63c2.46-2.8,2.84-5.64.78-8.69-.91-1.36-.7-2.12.42-3,.11-.09.2-.19.3-.28,4.28-4.17,4.33-7.78.16-12-2.4-2.43-2.38-2.41.65-4.15,2.46-1.4,5-2.75,7.31-4.35,6.18-4.26,6.52-10.62,1-15.68q-7.17-6.57-14.3-13.19a46.43,46.43,0,0,1-3.35-3.52,13.38,13.38,0,0,1-3.13-11.7c1.56-8.58,2.85-17.19,2.52-26-.43-11.24-3.6-21.74-8.72-32.32a24.8,24.8,0,0,0,.82,6.51,123.22,123.22,0,0,1,.39,44.33c-.48,2.87-.73,5.77-1.29,8.62a13.38,13.38,0,0,0,2.21,10.2c4.6,7.12,10.71,12.83,17,18.42,1.26,1.12,2.58,2.18,3.83,3.32,2.46,2.22,2.36,4.18-.4,6.09s-5.31,3.49-8,5.24c-.95.64-1.9,1.29-2.79,2-2.9,2.33-3.16,4.61-.82,7.46.94,1.15,2,2.18,3,3.31,1.46,1.73,1.45,3-.12,4.65a29.7,29.7,0,0,1-5.8,4.39c-.42.28-1,.35-1.29,1.1.92.17,1.82.25,2.68.5a3.65,3.65,0,0,1,2.66,3c.26,1.42-.67,2.29-1.76,2.92-1.4.81-2.84,1.56-4.29,2.28a3.18,3.18,0,0,0-1.93,3.62,81,81,0,0,1,.93,10.89C156.31,246.32,153.7,249.06,147,249.38Z"/><path class="cls-4" d="M139.23,156.07c-5.91,3.12-11.69,2.71-17.35-.68-.1-.06-.26,0-.57-.06,1.66,4.3,4.53,7,9.12,7.66.15-.47-.79-.93-.69-1.8,1.2.95,2.12,2.13,3.54,2.62.57.2,1.22.56,1.75.23,1.45-.89,1.42-.94,3-.31a3,3,0,0,0,.38.15c.54.09,1.14.84,1.58.16s-.44-.86-.74-1.27-1-.73-1.13-1.59c2.22,1.48,4.36,2.82,7.29,1.59l-4.17-3c.07-.11.13-.22.2-.32,1,.52,2,1.11,3.09,1.56a5,5,0,0,0,3.89.16c-2.78-1.81-5.34-3.48-7.89-5.16A1.14,1.14,0,0,0,139.23,156.07Z"/><path class="cls-4" d="M228.14,70.11Q208.51,53.82,181.61,46a207.54,207.54,0,0,0-58.31-7.85h-3.49c1.94,1.17,4.35,2.52,7.29,4.08-2.55,1.49-4.71,2.78-6.51,3.88q24.67,1.74,43.15,10.3a99.92,99.92,0,0,1,37.89,30q14.73,19.23,21.41,45.15a225.17,225.17,0,0,1,6.67,56.15q0,29.07-5.89,51t-19,36.71q-13.17,14.73-34.16,22c-24.72,8.55-54.37,9.64-79.91,4.32-19.09-4-34.81-13.67-44.06-31.14-9.34-17.63-9.85-37.72-4-56.57,5.22-16.79,15.05-30.72,27.59-42.86,6.33-6.12,13.38-11.37,20.07-17.06,18.71-15.89,33-34.93,41.18-58.23a120.86,120.86,0,0,0,7-43.37,3.11,3.11,0,0,0-.25-.67,124.24,124.24,0,0,1-7.16,19.29c-7.2,14.9-17.73,27.06-30.7,37.2-14,10.91-28.65,20.78-42.85,31.35-10.5,7.81-20.37,16.3-28.23,26.89C14.42,186.71,9.2,209.2,13,233.84c3,19.47,12.74,35.37,26.53,49C78,321.09,141,320.39,187.94,299.33A141.36,141.36,0,0,0,225,275.27a137.11,137.11,0,0,0,33-45.74q12.16-26.9,12.17-60.27,0-33.76-11.19-58.31A113.3,113.3,0,0,0,228.14,70.11Z"/><path class="cls-4" d="M109.23,45.94a11.86,11.86,0,0,1,1.64,2.12c.51.82,1.15,1.9,1.94,3.23.7-1.33,1.29-2.41,1.76-3.23a10.09,10.09,0,0,1,1.58-2.12,11.86,11.86,0,0,1,2.12-1.64c.82-.51,1.89-1.15,3.23-1.94-1.34-.7-2.41-1.31-3.23-1.82a11.86,11.86,0,0,1-2.12-1.64,12.91,12.91,0,0,1-1.64-2.06c-.51-.78-1.16-1.84-1.94-3.17-.7,1.33-1.29,2.41-1.76,3.23A10,10,0,0,1,109.23,39a11.79,11.79,0,0,1-2.12,1.65c-.82.51-1.9,1.11-3.23,1.82,1.33.7,2.41,1.31,3.23,1.82A12.23,12.23,0,0,1,109.23,45.94Z"/><path class="cls-4" d="M305.05,137.85q4.17-4.84,6.2-6.92A39.72,39.72,0,0,0,305.05,137.85Z"/><path class="cls-5" d="M752.18,165.36c-.75-.29-1.53-.58-2.37-.86l-1.4-.44,1.39.44C750.64,164.78,751.43,165.07,752.18,165.36Z"/><path class="cls-5" d="M574.63,155.18a31.32,31.32,0,0,0-1,31.25,31.32,31.32,0,0,1,1-31.25Z"/><path class="cls-5" d="M743.23,162.59a42.87,42.87,0,0,0-9.94-1.4q-15.54,0-27.07,7.26,11.53-7.23,27.06-7.25A42.81,42.81,0,0,1,743.23,162.59Z"/><path class="cls-5" d="M592.68,138.39l-.43.25c-.35.22-.67.44-1,.66.33-.22.65-.44,1-.66Z"/><path class="cls-5" d="M694.78,178.52a49.5,49.5,0,0,1,5-5.15,50.4,50.4,0,0,0-5,5.14Q689,185.46,689,189.9a8,8,0,0,0,.35,1c-.13-.32-.25-.66-.35-1Q689,185.47,694.78,178.52Z"/><path class="cls-5" d="M628,173.35a91.89,91.89,0,0,1-7.33,8.67A91.89,91.89,0,0,0,628,173.35Z"/><path class="cls-5" d="M713.69,120.52a.87.87,0,0,1-.22,0,.84.84,0,0,0,.2,0Z"/><path class="cls-5" d="M713,120.2a2.72,2.72,0,0,0,.34.24,2.08,2.08,0,0,1-.34-.25l-.23.11Z"/><path class="cls-5" d="M761.76,173.5a6,6,0,0,1-1.49,3.49,6,6,0,0,0,1.5-3.49,4.82,4.82,0,0,0-1.17-3A4.87,4.87,0,0,1,761.76,173.5Z"/><path class="cls-5" d="M692.77,195q4.79,3.23,15,3.22a76.23,76.23,0,0,0,20.48-2.71,76.25,76.25,0,0,1-20.49,2.71Q697.55,198.22,692.77,195Z"/><path class="cls-4" d="M311.25,130.93a33.75,33.75,0,0,1,5.66-4.1,17.79,17.79,0,0,0-4.45,2.93C312.15,130,311.74,130.42,311.25,130.93Z"/><path class="cls-4" d="M339.74,127q-7.5-11.34-25.57-11.14a42.69,42.69,0,0,0-9.12.8q-7.17,1.47-14.69,7.86l14.69,13.33a39.72,39.72,0,0,1,6.2-6.92c.49-.51.9-.91,1.21-1.17a17.79,17.79,0,0,1,4.45-2.93h0C322.91,123.4,330.83,121.73,339.74,127Z"/><path class="cls-4" d="M787.86,101.27V87.6H663.45C656.7,28.69,612.3,0,612.3,0a2.06,2.06,0,0,0-.68,1.82c0,1.06.15,1.67.45,1.82q20.52,27.3,26.43,47.1,4,13.31,4,36.86H281.82v13.67H392.55v22.45l-34.66,62.7q-4.81,8.61-8.36,8.61-6.43-1.59-6.43-19.59,0-4.45,1-13.33t1-13.33Q345,135,339.75,127h0c-8.89-5.28-16.8-3.62-22.82-.19a12.62,12.62,0,0,1,5.22-1.17c4.48,0,6.73,1.33,6.73,4,0,1.44-1.07,3.61-3.19,6.49a33.42,33.42,0,0,0-7.07,20.39q0,21.42,18,39,16.41,16,26.54,16.06l40.45-71.09q7.51-13.22,9.57-17.31V101.27h86.92v18.48a131.07,131.07,0,0,0-36.34,4.67q-21.3,6.17-21.31,20.3c0,4.34,2.24,7.79,6.73,10.38l7.52,4.33q-10.26,4.9-14.7,8.67-7.29,6.15-7.29,14.48,0,8.56,10.37,15.17,21.23,13.53,50.39,13.57h0c2.78-1.58,5.89-3.44,9.17-5.54,13.45-8.58,29.76-21.12,37.39-35.24v-.46q-22.89,32.8-59.92,32.81a38.73,38.73,0,0,1-15.95-3.3q-9.45-4.22-9.45-11.62,0-13.33,27.22-15.72,3.87-.34,19.37-.8V161l-6.84.34q-6.82.34-7.4.34-26.09,0-25.86-9.15.1-8.7,13.33-13.39a60.47,60.47,0,0,1,20.5-3.55,84.3,84.3,0,0,1,28.26,4.79V126.87q-2.4-1.83-7.75-3.09V101.27h125v45q-15.37-16.74-19.14-19.82-12.3-10.36-24.49-10.37-19.14,0-32.7,16.41Q554.09,147.07,554,158.12q-.11,12.07,8.78,24.83a73.12,73.12,0,0,0,8.12,9.76c35.74,26.87,71.62-5.2,71.62-5.2h0V203.8l20.74,8.89V101.27h33.83v29.47q-.12.12-.57.69-2.85,2.5-4.33,3.77v8.45q6.5-2.28,13.33-5.13a90.9,90.9,0,0,1,33.61-6.72q8.21-.23,12.93,1.94t9.74,8.54v10.49c-46.55-8.69-66.37,12.43-74.22,26.49a46.69,46.69,0,0,0-4.67,11.34h0a24.76,24.76,0,0,0,4.27,6.83q12.2,14.13,34.63,14.13,16.29,0,28.6-5.81,3.87-1.83,9.91-5.36c1,.69,1.48,2.25,1.48,4.68q15.72,6.48,18.11,7.4V168.6q0-29.06-4.9-38.62-7.29-14.35-32.92-14.35a70.22,70.22,0,0,0-12.42,1.13c-9.69,1.76-15.21,2.9-16.61,3.43a2.08,2.08,0,0,0,.34.25s.07,0,.1,0a.87.87,0,0,0,.22,0h0a5.26,5.26,0,0,1-.85,0l-.1,0-.08,0s.06-.08.14-.12l.23-.11-.14-.12a1.27,1.27,0,0,0-.91-.46V101.27ZM628.48,172.71c-.16.21-.33.42-.49.64a91.89,91.89,0,0,1-7.33,8.67,76.9,76.9,0,0,1-7.22,6.64Q601.82,198,591.57,198q-9.92,0-16.07-8.55a27.27,27.27,0,0,1-1.9-3,31.32,31.32,0,0,1,1-31.25q5.31-8.62,16.62-15.88c.33-.22.65-.44,1-.66l.43-.25q10-6.12,16.66-6.13a32.32,32.32,0,0,1,18,5.7q9.67,6.38,9.68,15.27Q637,161.09,628.48,172.71ZM760.27,177q-3.27,4.29-13.77,10.64a72.63,72.63,0,0,1-18.25,7.88,76.23,76.23,0,0,1-20.48,2.71q-10.23,0-15-3.22a9.21,9.21,0,0,1-3.45-4.09,8,8,0,0,1-.35-1q0-4.44,5.81-11.39a50.4,50.4,0,0,1,5-5.14,44.62,44.62,0,0,1,6.48-4.92q11.53-7.24,27.07-7.26a42.87,42.87,0,0,1,9.94,1.4c1.64.4,3.37.9,5.18,1.47l1.4.44c.84.28,1.62.57,2.37.86q6.24,2.38,8.42,5.11a4.82,4.82,0,0,1,1.17,3A6,6,0,0,1,760.27,177Z"/><path class="cls-4" d="M627.34,138a32.32,32.32,0,0,0-18-5.7q-6.69,0-16.66,6.13c6.64-4.07,12.19-6.13,16.66-6.13a32.27,32.27,0,0,1,18,5.7q9.69,6.38,9.68,15.26,0,7.86-8.54,19.48l-.49.65c.16-.22.33-.43.49-.64Q637,161.09,637,153.23,637,144.34,627.34,138Z"/><path class="cls-4" d="M591.25,139.3q-11.31,7.26-16.62,15.88Q579.94,146.56,591.25,139.3Z"/><path class="cls-4" d="M613.44,188.65Q601.82,198,591.57,198q-9.92,0-16.06-8.54a26,26,0,0,1-1.91-3,27.27,27.27,0,0,0,1.9,3q6.15,8.55,16.07,8.55,10.24,0,21.87-9.34a76.9,76.9,0,0,0,7.22-6.64A76.65,76.65,0,0,1,613.44,188.65Z"/><path class="cls-4" d="M689.32,190.91a9.21,9.21,0,0,0,3.45,4.09A9.21,9.21,0,0,1,689.32,190.91Z"/><path class="cls-4" d="M760.6,170.47q-2.18-2.73-8.42-5.11C756.33,167,759.15,168.65,760.6,170.47Z"/><path class="cls-4" d="M743.23,162.59c1.64.4,3.37.9,5.18,1.47C746.6,163.49,744.87,163,743.23,162.59Z"/><path class="cls-4" d="M746.5,187.62a72.3,72.3,0,0,1-18.25,7.89,72.63,72.63,0,0,0,18.25-7.88Q757,181.29,760.27,177,757,181.28,746.5,187.62Z"/><path class="cls-4" d="M699.74,173.37a44.62,44.62,0,0,1,6.48-4.92A44.62,44.62,0,0,0,699.74,173.37Z"/><path class="cls-4" d="M339.74,127h0c-8.91-5.27-16.83-3.6-22.83-.18h0C322.94,123.39,330.85,121.73,339.74,127Z"/><path class="cls-4" d="M495.64,211.33q26.77,0,46.37-12.42V170.55c-7.62,14.11-23.94,26.65-37.39,35.23-3.28,2.1-6.39,4-9.16,5.54Z"/><path class="cls-4" d="M495.46,211.32c2.77-1.58,5.88-3.44,9.16-5.54-3.28,2.1-6.39,4-9.17,5.54Z"/><path class="cls-4" d="M634.06,0H612.3s44.4,28.7,51.15,87.6h0Q663.45,32.43,634.06,0Z"/><polygon class="cls-4" points="663.45 87.61 663.45 87.61 663.45 87.61 663.45 87.61"/><path class="cls-4" d="M570.86,192.72a81.51,81.51,0,0,0,10.79,9.15q13.33,9.45,24.61,9.46,17.78,0,36.23-23.81h0C642.38,187.61,606.55,219.55,570.86,192.72Z"/><polygon class="cls-4" points="642.49 187.52 642.49 187.52 642.49 187.51 642.49 187.52"/><path class="cls-4" d="M712.8,120.3c-.08,0-.13.09-.13.11s0,0,.07,0l.1,0a5.3,5.3,0,0,0,.83,0,.84.84,0,0,1-.2,0s-.06,0-.1,0a2.72,2.72,0,0,1-.34-.24Z"/><path class="cls-4" d="M713.37,120.44s.07,0,.1,0S713.41,120.46,713.37,120.44Z"/><path class="cls-4" d="M713.69,120.53h0a5.3,5.3,0,0,1-.83,0A5.26,5.26,0,0,0,713.69,120.53Z"/><path class="cls-4" d="M712.8,120.3c-.08,0-.14.08-.14.12l.08,0s-.06,0-.07,0S712.72,120.35,712.8,120.3Z"/><path class="cls-4" d="M761.76,152.77q-9.9-7.52-26.2-7.52-26.88,0-45,18.11-9.34,9.34-9.34,18.8a21.85,21.85,0,0,0,1.66,8.43,46.84,46.84,0,0,1,4.67-11.33C695.39,165.2,715.21,144.08,761.76,152.77Z"/><path class="cls-4" d="M687.55,179.26a46.84,46.84,0,0,0-4.67,11.33h0A46.69,46.69,0,0,1,687.55,179.26Z"/></g></g></svg>